<mxfile host="app.diagrams.net" agent="Mozilla/5.0 (Windows NT 10.0; Win64; x64) AppleWebKit/537.36 (KHTML, like Gecko) Chrome/126.0.0.0 Safari/537.36" version="24.7.8">
  <diagram name="Page-1" id="kNIR63icREKt_BW9GWnO">
    <mxGraphModel dx="1999" dy="1770" grid="1" gridSize="10" guides="1" tooltips="1" connect="1" arrows="1" fold="1" page="1" pageScale="1" pageWidth="850" pageHeight="1100" math="0" shadow="0">
      <root>
        <mxCell id="0" />
        <mxCell id="1" parent="0" />
        <mxCell id="3scr5XpAK02iq1hrENhV-1" value="&amp;nbsp; DevZero Worspace" style="html=1;overflow=block;blockSpacing=1;whiteSpace=wrap;fontSize=23.5;fontFamily=Roboto;align=left;spacing=0;verticalAlign=top;fillOpacity=0;rounded=1;absoluteArcSize=1;arcSize=3;fillColor=#000000;dashed=1;fixDash=1;strokeWidth=1.5;container=1;pointerEvents=0;collapsible=0;recursiveResize=0;lucidId=t~f8njuiS46S;" vertex="1" parent="1">
          <mxGeometry x="-63" y="-239" width="1258" height="639" as="geometry" />
        </mxCell>
        <mxCell id="3scr5XpAK02iq1hrENhV-16" value="Inventory Page" style="html=1;overflow=block;blockSpacing=1;whiteSpace=wrap;fontSize=23.3;spacing=3.8;strokeOpacity=0;fillOpacity=0;rounded=1;absoluteArcSize=1;arcSize=9;fillColor=#ffffff;strokeWidth=NaN;lucidId=Bkg8xvSoQ5Qa;" vertex="1" parent="3scr5XpAK02iq1hrENhV-1">
          <mxGeometry x="86.5" y="219" width="180" height="45" as="geometry" />
        </mxCell>
        <mxCell id="3scr5XpAK02iq1hrENhV-13" value="Frontend" style="html=1;overflow=block;blockSpacing=1;whiteSpace=wrap;fontSize=23.3;spacing=3.8;strokeOpacity=0;fillOpacity=0;rounded=1;absoluteArcSize=1;arcSize=9;fillColor=#ffffff;strokeWidth=NaN;lucidId=Djg8Wb5ZgrRF;" vertex="1" parent="3scr5XpAK02iq1hrENhV-1">
          <mxGeometry x="1034.5" y="212" width="180" height="45" as="geometry" />
        </mxCell>
        <mxCell id="3scr5XpAK02iq1hrENhV-49" value="Consume Message" style="text;html=1;resizable=0;labelBackgroundColor=default;align=center;verticalAlign=middle;fontStyle=1;fontColor=#333333;fontSize=16.7;" vertex="1" parent="3scr5XpAK02iq1hrENhV-1">
          <mxGeometry x="372.9956922955952" y="429.00285006438753" as="geometry" />
        </mxCell>
        <mxCell id="3scr5XpAK02iq1hrENhV-2" value="" style="html=1;overflow=block;blockSpacing=1;whiteSpace=wrap;shape=image;fontSize=13;spacing=0;strokeColor=#282c33;strokeOpacity=100;rounded=1;absoluteArcSize=1;arcSize=9;dashed=1;fixDash=1;dashPattern=8 8;strokeWidth=1.5;image=https://images.lucid.app/images/0b39472f-384b-4e4d-ab00-eba694fa60bf/content;imageAspect=0;lucidId=V.f8MnWtJbOo;labelBackgroundColor=none;labelBorderColor=none;imageBorder=default;" vertex="1" parent="1">
          <mxGeometry x="410" y="130" width="356" height="163" as="geometry" />
        </mxCell>
        <mxCell id="3scr5XpAK02iq1hrENhV-39" style="edgeStyle=orthogonalEdgeStyle;rounded=0;orthogonalLoop=1;jettySize=auto;html=1;flowAnimation=1;" edge="1" parent="1" source="3scr5XpAK02iq1hrENhV-45" target="3scr5XpAK02iq1hrENhV-24">
          <mxGeometry relative="1" as="geometry" />
        </mxCell>
        <mxCell id="3scr5XpAK02iq1hrENhV-3" value="" style="html=1;overflow=block;blockSpacing=1;whiteSpace=wrap;shape=image;fontSize=13;spacing=0;strokeColor=none;strokeOpacity=100;rounded=1;absoluteArcSize=1;arcSize=9;strokeWidth=0;image=https://images.lucid.app/images/5639f2c1-7654-4be0-8fed-5f2a0e44f608/content;lucidId=xbg8mxfhmqhO;" vertex="1" parent="1">
          <mxGeometry x="14" y="-161" width="199" height="161" as="geometry" />
        </mxCell>
        <mxCell id="3scr5XpAK02iq1hrENhV-4" value="" style="html=1;overflow=block;blockSpacing=1;whiteSpace=wrap;shape=image;fontSize=13;spacing=0;strokeColor=none;strokeOpacity=100;rounded=1;absoluteArcSize=1;arcSize=9;strokeWidth=0;image=https://images.lucid.app/images/e4d2a0e0-3ca5-4a8e-a486-7546d7e0f524/content;imageAspect=0;lucidId=reg80trRzTVi;" vertex="1" parent="1">
          <mxGeometry x="16" y="113" width="195" height="195" as="geometry" />
        </mxCell>
        <mxCell id="3scr5XpAK02iq1hrENhV-5" value="" style="html=1;overflow=block;blockSpacing=1;whiteSpace=wrap;shape=image;fontSize=13;spacing=0;strokeColor=none;strokeOpacity=100;rounded=1;absoluteArcSize=1;arcSize=9;strokeWidth=0;image=https://images.lucid.app/images/5639f2c1-7654-4be0-8fed-5f2a0e44f608/content;lucidId=Sfg8eTOnxDRa;" vertex="1" parent="1">
          <mxGeometry x="962" y="-169" width="199" height="161" as="geometry" />
        </mxCell>
        <mxCell id="3scr5XpAK02iq1hrENhV-6" value="" style="html=1;overflow=block;blockSpacing=1;whiteSpace=wrap;shape=image;fontSize=13;spacing=0;strokeColor=none;strokeOpacity=100;rounded=1;absoluteArcSize=1;arcSize=9;strokeWidth=0;image=https://images.lucid.app/images/e4d2a0e0-3ca5-4a8e-a486-7546d7e0f524/content;imageAspect=0;lucidId=Sfg8Obj.12ld;" vertex="1" parent="1">
          <mxGeometry x="964" y="113" width="195" height="195" as="geometry" />
        </mxCell>
        <mxCell id="3scr5XpAK02iq1hrENhV-7" value="" style="html=1;jettySize=18;whiteSpace=wrap;fontSize=13;strokeColor=#3a414a;strokeOpacity=100;strokeWidth=1.5;rounded=1;arcSize=12;edgeStyle=orthogonalEdgeStyle;startArrow=none;endArrow=block;endFill=1;exitX=0.047;exitY=0.5;exitPerimeter=0;entryX=1.002;entryY=0.5;entryPerimeter=0;lucidId=ohg8xq3CKEPi;flowAnimation=1;" edge="1" parent="1" source="3scr5XpAK02iq1hrENhV-6" target="3scr5XpAK02iq1hrENhV-2">
          <mxGeometry width="100" height="100" relative="1" as="geometry">
            <Array as="points" />
          </mxGeometry>
        </mxCell>
        <mxCell id="3scr5XpAK02iq1hrENhV-8" value="Produce Message" style="text;html=1;resizable=0;labelBackgroundColor=default;align=center;verticalAlign=middle;fontStyle=1;fontColor=#333333;fontSize=16.7;" vertex="1" parent="3scr5XpAK02iq1hrENhV-7">
          <mxGeometry relative="1" as="geometry">
            <mxPoint y="-20" as="offset" />
          </mxGeometry>
        </mxCell>
        <mxCell id="3scr5XpAK02iq1hrENhV-9" value="Order Service (Producer)" style="html=1;overflow=block;blockSpacing=1;whiteSpace=wrap;fontSize=23.3;spacing=3.8;strokeOpacity=0;fillOpacity=0;rounded=1;absoluteArcSize=1;arcSize=9;fillColor=#ffffff;strokeWidth=NaN;lucidId=Ihg8It~qUONc;" vertex="1" parent="1">
          <mxGeometry x="972" y="302" width="180" height="63" as="geometry" />
        </mxCell>
        <mxCell id="3scr5XpAK02iq1hrENhV-10" value="Inventory Service (Consumer)" style="html=1;overflow=block;blockSpacing=1;whiteSpace=wrap;fontSize=23.3;spacing=3.8;strokeOpacity=0;fillOpacity=0;rounded=1;absoluteArcSize=1;arcSize=9;fillColor=#ffffff;strokeWidth=NaN;lucidId=Eig8I0Vff00T;" vertex="1" parent="1">
          <mxGeometry x="26" y="308" width="188" height="60" as="geometry" />
        </mxCell>
        <mxCell id="3scr5XpAK02iq1hrENhV-11" value="" style="html=1;jettySize=18;whiteSpace=wrap;fontSize=13;strokeColor=#3a414a;strokeOpacity=100;strokeWidth=1.5;rounded=1;arcSize=12;edgeStyle=orthogonalEdgeStyle;startArrow=none;endArrow=block;endFill=1;entryX=0.953;entryY=0.5;entryPerimeter=0;lucidId=ujg8jq96LU-e;flowAnimation=1;" edge="1" parent="1" target="3scr5XpAK02iq1hrENhV-4">
          <mxGeometry width="100" height="100" relative="1" as="geometry">
            <Array as="points" />
            <mxPoint x="409" y="212" as="sourcePoint" />
          </mxGeometry>
        </mxCell>
        <mxCell id="3scr5XpAK02iq1hrENhV-14" value="" style="html=1;jettySize=18;whiteSpace=wrap;fontSize=13;strokeColor=#3a414a;strokeOpacity=100;strokeWidth=1.5;rounded=1;arcSize=12;edgeStyle=orthogonalEdgeStyle;startArrow=none;endArrow=block;endFill=1;exitX=0.5;exitY=1;exitPerimeter=0;entryX=0.5;entryY=0.047;entryPerimeter=0;lucidId=3jg8wu34Qd-h;flowAnimation=1;" edge="1" parent="1" source="3scr5XpAK02iq1hrENhV-13" target="3scr5XpAK02iq1hrENhV-6">
          <mxGeometry width="100" height="100" relative="1" as="geometry">
            <Array as="points" />
          </mxGeometry>
        </mxCell>
        <mxCell id="3scr5XpAK02iq1hrENhV-15" value="Send OrderID" style="text;html=1;resizable=0;labelBackgroundColor=default;align=center;verticalAlign=middle;fontStyle=1;fontColor=#333333;fontSize=16.7;" vertex="1" parent="3scr5XpAK02iq1hrENhV-14">
          <mxGeometry relative="1" as="geometry">
            <mxPoint as="offset" />
          </mxGeometry>
        </mxCell>
        <mxCell id="3scr5XpAK02iq1hrENhV-17" value="" style="html=1;jettySize=18;whiteSpace=wrap;fontSize=13;strokeColor=#3a414a;strokeOpacity=100;strokeWidth=1.5;rounded=1;arcSize=12;edgeStyle=orthogonalEdgeStyle;startArrow=none;endArrow=block;endFill=1;exitX=0.5;exitY=0.047;exitPerimeter=0;entryX=0.5;entryY=1;entryPerimeter=0;lucidId=Vkg83zgqs7PL;flowAnimation=1;" edge="1" parent="1" source="3scr5XpAK02iq1hrENhV-4" target="3scr5XpAK02iq1hrENhV-16">
          <mxGeometry width="100" height="100" relative="1" as="geometry">
            <Array as="points" />
          </mxGeometry>
        </mxCell>
        <mxCell id="3scr5XpAK02iq1hrENhV-18" value="Send OrderID" style="text;html=1;resizable=0;labelBackgroundColor=default;align=center;verticalAlign=middle;fontStyle=1;fontColor=#333333;fontSize=16.7;" vertex="1" parent="3scr5XpAK02iq1hrENhV-17">
          <mxGeometry x="-0.179239449281826" relative="1" as="geometry">
            <mxPoint as="offset" />
          </mxGeometry>
        </mxCell>
        <mxCell id="3scr5XpAK02iq1hrENhV-47" style="edgeStyle=orthogonalEdgeStyle;rounded=0;orthogonalLoop=1;jettySize=auto;html=1;entryX=1;entryY=0.5;entryDx=0;entryDy=0;flowAnimation=1;" edge="1" parent="1" source="3scr5XpAK02iq1hrENhV-19" target="3scr5XpAK02iq1hrENhV-5">
          <mxGeometry relative="1" as="geometry" />
        </mxCell>
        <mxCell id="3scr5XpAK02iq1hrENhV-51" value="Order Product" style="edgeLabel;html=1;align=center;verticalAlign=middle;resizable=0;points=[];fontFamily=Helvetica;fontSize=16.7;fontColor=#333333;fontStyle=1;labelBackgroundColor=default;fillColor=none;gradientColor=none;" vertex="1" connectable="0" parent="3scr5XpAK02iq1hrENhV-47">
          <mxGeometry x="0.1154" y="6" relative="1" as="geometry">
            <mxPoint x="8" y="-6" as="offset" />
          </mxGeometry>
        </mxCell>
        <mxCell id="3scr5XpAK02iq1hrENhV-19" value="User" style="html=1;overflow=block;blockSpacing=1;whiteSpace=wrap;shape=mxgraph.aws4.user;labelPosition=center;verticalLabelPosition=bottom;align=center;verticalAlign=top;pointerEvents=1;fontSize=23.3;fontColor=#3a414a;spacing=0;strokeColor=#282c33;strokeOpacity=100;rounded=1;absoluteArcSize=1;arcSize=9;fillColor=#232f3e;strokeWidth=1.5;lucidId=hmg8W8bylDBW;" vertex="1" parent="1">
          <mxGeometry x="1360" y="-148" width="121" height="121" as="geometry" />
        </mxCell>
        <mxCell id="3scr5XpAK02iq1hrENhV-24" value="Inventory Management" style="html=1;overflow=block;blockSpacing=1;whiteSpace=wrap;shape=mxgraph.aws4.user;labelPosition=center;verticalLabelPosition=bottom;align=center;verticalAlign=top;pointerEvents=1;fontSize=23.3;fontColor=#3a414a;spacing=0;strokeColor=#282c33;strokeOpacity=100;rounded=1;absoluteArcSize=1;arcSize=9;fillColor=#232f3e;strokeWidth=1.5;lucidId=Zog84dNtN-GM;" vertex="1" parent="1">
          <mxGeometry x="-289" y="-141" width="121" height="121" as="geometry" />
        </mxCell>
        <mxCell id="3scr5XpAK02iq1hrENhV-46" value="" style="edgeStyle=orthogonalEdgeStyle;rounded=0;orthogonalLoop=1;jettySize=auto;html=1;flowAnimation=1;" edge="1" parent="1" source="3scr5XpAK02iq1hrENhV-3" target="3scr5XpAK02iq1hrENhV-45">
          <mxGeometry relative="1" as="geometry">
            <mxPoint x="14" y="-80" as="sourcePoint" />
            <mxPoint x="-173" y="-80" as="targetPoint" />
          </mxGeometry>
        </mxCell>
        <mxCell id="3scr5XpAK02iq1hrENhV-45" value="Show Product" style="text;html=1;resizable=0;labelBackgroundColor=default;align=center;verticalAlign=middle;fontStyle=1;fontColor=#333333;fontSize=16.7;" vertex="1" parent="1">
          <mxGeometry x="-80" y="-80.5" as="geometry" />
        </mxCell>
      </root>
    </mxGraphModel>
  </diagram>
</mxfile>
